<svg width="30" height="34" viewBox="0 0 30 34" fill="none" xmlns="http://www.w3.org/2000/svg">
<path fill-rule="evenodd" clip-rule="evenodd" d="M4.5 6.44641C3.67157 6.44641 3 7.11798 3 7.94641V28.9464C3 29.7748 3.67157 30.4464 4.5 30.4464H25.5C26.3284 30.4464 27 29.7748 27 28.9464V7.94641C27 7.11798 26.3284 6.44641 25.5 6.44641H4.5ZM0 7.94641C0 5.46113 2.01472 3.44641 4.5 3.44641H25.5C27.9853 3.44641 30 5.46113 30 7.94641V28.9464C30 31.4317 27.9853 33.4464 25.5 33.4464H4.5C2.01472 33.4464 0 31.4317 0 28.9464V7.94641Z" fill="#03C2FF"/>
<path fill-rule="evenodd" clip-rule="evenodd" d="M21 0.446533C21.8284 0.446533 22.5 1.11811 22.5 1.94653V7.94653C22.5 8.77496 21.8284 9.44653 21 9.44653C20.1716 9.44653 19.5 8.77496 19.5 7.94653V1.94653C19.5 1.11811 20.1716 0.446533 21 0.446533Z" fill="#03C2FF"/>
<path fill-rule="evenodd" clip-rule="evenodd" d="M9 0.446533C9.82843 0.446533 10.5 1.11811 10.5 1.94653V7.94653C10.5 8.77496 9.82843 9.44653 9 9.44653C8.17157 9.44653 7.5 8.77496 7.5 7.94653V1.94653C7.5 1.11811 8.17157 0.446533 9 0.446533Z" fill="#03C2FF"/>
<path fill-rule="evenodd" clip-rule="evenodd" d="M0 13.9464C0 13.118 0.671573 12.4464 1.5 12.4464H28.5C29.3284 12.4464 30 13.118 30 13.9464C30 14.7748 29.3284 15.4464 28.5 15.4464H1.5C0.671573 15.4464 0 14.7748 0 13.9464Z" fill="#03C2FF"/>
</svg>
