<svg width="21" height="34" viewBox="0 0 21 34" fill="none" xmlns="http://www.w3.org/2000/svg">
<g opacity="0.9">
<path fill-rule="evenodd" clip-rule="evenodd" d="M10.6624 0.446411C11.4909 0.446411 12.1624 1.11798 12.1624 1.94641V31.9464C12.1624 32.7748 11.4909 33.4464 10.6624 33.4464C9.83402 33.4464 9.16245 32.7748 9.16245 31.9464V1.94641C9.16245 1.11798 9.83402 0.446411 10.6624 0.446411Z" fill="#56D4AE"/>
<path fill-rule="evenodd" clip-rule="evenodd" d="M2.81783 7.73824C3.99419 6.56188 5.58969 5.901 7.25332 5.901H17.4806C18.309 5.901 18.9806 6.57257 18.9806 7.401C18.9806 8.22943 18.309 8.901 17.4806 8.901H7.25332C6.38534 8.901 5.55291 9.24581 4.93915 9.85956C4.3254 10.4733 3.98059 11.3057 3.98059 12.1737C3.98059 13.0417 4.3254 13.8741 4.93915 14.4879C5.55291 15.1017 6.38534 15.4465 7.25332 15.4465H14.0715C15.7351 15.4465 17.3306 16.1073 18.507 17.2837C19.6834 18.4601 20.3442 20.0556 20.3442 21.7192C20.3442 23.3828 19.6834 24.9783 18.507 26.1547C17.3306 27.331 15.7351 27.9919 14.0715 27.9919H2.48059C1.65216 27.9919 0.980591 27.3203 0.980591 26.4919C0.980591 25.6635 1.65216 24.9919 2.48059 24.9919H14.0715C14.9395 24.9919 15.7719 24.6471 16.3857 24.0334C16.9994 23.4196 17.3442 22.5872 17.3442 21.7192C17.3442 20.8512 16.9994 20.0188 16.3857 19.405C15.7719 18.7913 14.9395 18.4465 14.0715 18.4465H7.25332C5.58969 18.4465 3.99419 17.7856 2.81783 16.6092C1.64147 15.4329 0.980591 13.8374 0.980591 12.1737C0.980591 10.5101 1.64147 8.9146 2.81783 7.73824Z" fill="#56D4AE"/>
</g>
</svg>
