<svg width="28" height="34" viewBox="0 0 28 34" fill="none" xmlns="http://www.w3.org/2000/svg">
<path fill-rule="evenodd" clip-rule="evenodd" d="M2.15329 1.76443C2.9972 0.920517 4.14179 0.446411 5.33527 0.446411H17.3353C17.7331 0.446411 18.1146 0.604446 18.3959 0.885751L27.3959 9.88575C27.6772 10.1671 27.8353 10.5486 27.8353 10.9464V28.9464C27.8353 30.1399 27.3612 31.2845 26.5172 32.1284C25.6733 32.9723 24.5287 33.4464 23.3353 33.4464H5.33527C4.14179 33.4464 2.9972 32.9723 2.15329 32.1284C1.30937 31.2845 0.835266 30.1399 0.835266 28.9464V4.94641C0.835266 3.75294 1.30937 2.60834 2.15329 1.76443ZM5.33527 3.44641C4.93744 3.44641 4.55591 3.60445 4.27461 3.88575C3.9933 4.16706 3.83527 4.54859 3.83527 4.94641V28.9464C3.83527 29.3442 3.9933 29.7258 4.27461 30.0071C4.55591 30.2884 4.93744 30.4464 5.33527 30.4464H23.3353C23.7331 30.4464 24.1146 30.2884 24.3959 30.0071C24.6772 29.7258 24.8353 29.3442 24.8353 28.9464V11.5677L16.7139 3.44641H5.33527Z" fill="#FFC061"/>
<path fill-rule="evenodd" clip-rule="evenodd" d="M17.3354 0.446411C18.1638 0.446411 18.8354 1.11798 18.8354 1.94641V9.44641H26.3354C27.1638 9.44641 27.8354 10.118 27.8354 10.9464C27.8354 11.7748 27.1638 12.4464 26.3354 12.4464H17.3354C16.5069 12.4464 15.8354 11.7748 15.8354 10.9464V1.94641C15.8354 1.11798 16.5069 0.446411 17.3354 0.446411Z" fill="#FFC061"/>
<path fill-rule="evenodd" clip-rule="evenodd" d="M6.83531 18.4464C6.83531 17.618 7.50688 16.9464 8.33531 16.9464H20.3353C21.1637 16.9464 21.8353 17.618 21.8353 18.4464C21.8353 19.2748 21.1637 19.9464 20.3353 19.9464H8.33531C7.50688 19.9464 6.83531 19.2748 6.83531 18.4464Z" fill="#FFC061"/>
<path fill-rule="evenodd" clip-rule="evenodd" d="M6.83531 24.4462C6.83531 23.6177 7.50688 22.9462 8.33531 22.9462H20.3353C21.1637 22.9462 21.8353 23.6177 21.8353 24.4462C21.8353 25.2746 21.1637 25.9462 20.3353 25.9462H8.33531C7.50688 25.9462 6.83531 25.2746 6.83531 24.4462Z" fill="#FFC061"/>
<path fill-rule="evenodd" clip-rule="evenodd" d="M6.83531 12.4465C6.83531 11.6181 7.50688 10.9465 8.33531 10.9465H11.3353C12.1637 10.9465 12.8353 11.6181 12.8353 12.4465C12.8353 13.275 12.1637 13.9465 11.3353 13.9465H8.33531C7.50688 13.9465 6.83531 13.275 6.83531 12.4465Z" fill="#FFC061"/>
</svg>
