<svg width="16" height="16" viewBox="0 0 16 16" fill="none" xmlns="http://www.w3.org/2000/svg">
<path d="M15.0237 11.892V14.1393C15.0245 14.3479 14.9818 14.5544 14.8982 14.7456C14.8146 14.9367 14.692 15.1083 14.5383 15.2493C14.3846 15.3904 14.2031 15.4978 14.0055 15.5646C13.8078 15.6314 13.5984 15.6563 13.3906 15.6375C11.0855 15.387 8.87132 14.5993 6.9259 13.3377C5.11595 12.1876 3.58143 10.6531 2.43131 8.84314C1.16531 6.88889 0.377455 4.66391 0.131569 2.34844C0.112849 2.14129 0.137468 1.93251 0.203857 1.7354C0.270246 1.53828 0.376952 1.35715 0.51718 1.20353C0.657408 1.04992 0.828085 0.927182 1.01835 0.843143C1.20861 0.759103 1.41428 0.715601 1.62228 0.715405H3.86958C4.23312 0.711827 4.58556 0.840563 4.86121 1.07762C5.13685 1.31467 5.3169 1.64387 5.36778 2.00386C5.46263 2.72304 5.63854 3.42919 5.89215 4.10883C5.99293 4.37695 6.01475 4.66834 5.955 4.94848C5.89526 5.22862 5.75646 5.48576 5.55505 5.68943L4.60369 6.64078C5.67008 8.51619 7.22289 10.069 9.09829 11.1354L10.0497 10.184C10.2533 9.98262 10.5105 9.84382 10.7906 9.78408C11.0707 9.72433 11.3621 9.74615 11.6303 9.84693C12.3099 10.1005 13.016 10.2764 13.7352 10.3713C14.0991 10.4226 14.4314 10.6059 14.669 10.8863C14.9066 11.1667 15.0328 11.5246 15.0237 11.892Z" fill="#03C2FF"/>
</svg>
