<svg width="56" height="52" viewBox="0 0 56 52" fill="none" xmlns="http://www.w3.org/2000/svg">
<path d="M6.72524 51.1582C4.62369 47.8482 3.04752 44.5645 1.99675 41.3071C0.998508 37.9972 0.49939 34.7135 0.49939 31.4561C0.49939 25.8345 1.97048 20.4492 4.91265 15.3004C7.85482 10.0991 12.1893 5.31806 17.916 0.957336L25.6392 5.52821C26.2697 5.94852 26.7163 6.42137 26.9789 6.94676C27.2942 7.41961 27.4518 7.91873 27.4518 8.44412C27.4518 9.02204 27.3204 9.5737 27.0578 10.0991C26.7951 10.6245 26.4798 11.0711 26.1121 11.4388C25.5341 12.0693 24.8774 12.8574 24.1419 13.8031C23.4588 14.6962 22.8021 15.7733 22.1716 17.0342C21.5412 18.2426 20.9895 19.6086 20.5167 21.1322C20.0964 22.6033 19.8862 24.2058 19.8862 25.9395C19.8862 27.8309 20.2014 29.8537 20.8319 32.0078C21.5149 34.1619 22.6182 36.4736 24.1419 38.9429C24.6672 39.7835 24.9299 40.6241 24.9299 41.4648C24.9299 42.4104 24.6147 43.2511 23.9842 43.9866C23.3538 44.7222 22.4869 45.3001 21.3836 45.7204L6.72524 51.1582ZM34.9386 51.1582C32.837 47.8482 31.2609 44.5645 30.2101 41.3071C29.2118 37.9972 28.7127 34.7135 28.7127 31.4561C28.7127 25.8345 30.1838 20.4492 33.126 15.3004C36.0682 10.0991 40.4026 5.31806 46.1293 0.957336L53.8525 5.52821C54.483 5.94852 54.9296 6.42137 55.1923 6.94676C55.5075 7.41961 55.6651 7.91873 55.6651 8.44412C55.6651 9.02204 55.5338 9.5737 55.2711 10.0991C55.0084 10.6245 54.6932 11.0711 54.3254 11.4388C53.7475 12.0693 53.0907 12.8574 52.3552 13.8031C51.6722 14.6962 51.0154 15.7733 50.385 17.0342C49.7545 18.2426 49.2029 19.6086 48.73 21.1322C48.3097 22.6033 48.0995 24.2058 48.0995 25.9395C48.0995 27.8309 48.4148 29.8537 49.0452 32.0078C49.7283 34.1619 50.8316 36.4736 52.3552 38.9429C52.8806 39.7835 53.1433 40.6241 53.1433 41.4648C53.1433 42.4104 52.828 43.2511 52.1976 43.9866C51.5671 44.7222 50.7002 45.3001 49.5969 45.7204L34.9386 51.1582Z" fill="#03C2FF"/>
</svg>
