<svg width="34" height="28" viewBox="0 0 34 28" fill="none" xmlns="http://www.w3.org/2000/svg">
<path fill-rule="evenodd" clip-rule="evenodd" d="M1.99774 1.53735C2.82617 1.53735 3.49774 2.20893 3.49774 3.03735V9.71917H10.1796C11.008 9.71917 11.6796 10.3907 11.6796 11.2192C11.6796 12.0476 11.008 12.7192 10.1796 12.7192H1.99774C1.16931 12.7192 0.497742 12.0476 0.497742 11.2192V3.03735C0.497742 2.20893 1.16931 1.53735 1.99774 1.53735Z" fill="#FF3CB1"/>
<path fill-rule="evenodd" clip-rule="evenodd" d="M22.3159 16.6737C22.3159 15.8453 22.9875 15.1737 23.8159 15.1737H31.9977C32.8262 15.1737 33.4977 15.8453 33.4977 16.6737V24.8555C33.4977 25.684 32.8262 26.3555 31.9977 26.3555C31.1693 26.3555 30.4977 25.684 30.4977 24.8555V18.1737H23.8159C22.9875 18.1737 22.3159 17.5021 22.3159 16.6737Z" fill="#FF3CB1"/>
<path fill-rule="evenodd" clip-rule="evenodd" d="M13.1784 0.719354C15.4133 0.0729036 17.7756 0.00313714 20.0447 0.516564C22.3139 1.02999 24.416 2.10988 26.155 3.65546C27.8939 5.20104 29.213 7.16195 29.9891 9.3552C30.2655 10.1362 29.8564 10.9933 29.0754 11.2697C28.2944 11.546 27.4373 11.137 27.1609 10.356C26.5539 8.64047 25.5221 7.1067 24.162 5.89778C22.8018 4.68886 21.1576 3.84419 19.3827 3.4426C17.6078 3.04101 15.7601 3.09558 14.012 3.60122C12.2639 4.10686 10.6724 5.04709 9.38594 6.33417C9.37486 6.34526 9.36361 6.35617 9.35218 6.36691L3.02491 12.3124C2.42119 12.8796 1.4719 12.8501 0.904617 12.2464C0.337329 11.6427 0.366863 10.6934 0.970581 10.1261L7.28122 4.19628C8.9229 2.55954 10.9513 1.36356 13.1784 0.719354ZM33.0909 15.6466C33.6582 16.2503 33.6286 17.1996 33.0249 17.7669L26.7143 23.6967C25.0726 25.3335 23.0442 26.5294 20.8171 27.1737C18.5822 27.8201 16.2199 27.8899 13.9507 27.3764C11.6816 26.863 9.57946 25.7831 7.84052 24.2375C6.10159 22.692 4.78252 20.7311 4.0064 18.5378C3.73004 17.7568 4.13911 16.8997 4.92008 16.6233C5.70105 16.347 6.55819 16.756 6.83455 17.537C7.44161 19.2525 8.47336 20.7863 9.83352 21.9952C11.1937 23.2041 12.8379 24.0488 14.6128 24.4504C16.3877 24.852 18.2354 24.7974 19.9835 24.2918C21.7316 23.7862 23.3231 22.8459 24.6095 21.5588C24.6151 21.5533 24.6206 21.5478 24.6262 21.5424C24.6319 21.5369 24.6376 21.5315 24.6433 21.5261L30.9706 15.5806C31.5743 15.0134 32.5236 15.0429 33.0909 15.6466Z" fill="#FF3CB1"/>
</svg>
